<?xml version="1.0" encoding="utf-8"?>
<!-- Generator: Adobe Illustrator 25.4.1, SVG Export Plug-In . SVG Version: 6.00 Build 0)  -->
<svg version="1.1" id="emoji" xmlns="http://www.w3.org/2000/svg" xmlns:xlink="http://www.w3.org/1999/xlink" x="0px" y="0px"
	 viewBox="0 0 72 72" style="enable-background:new 0 0 72 72;" xml:space="preserve">
<style type="text/css">
	.st0{fill:#B1CC33;}
	.st1{fill:#5C9E31;}
	.st2{fill:none;stroke:#FFFFFF;stroke-width:2;stroke-linecap:round;stroke-linejoin:round;}
</style>
<g id="color">
	<path class="st0" d="M36.8,22.1c1.7,1.7,1.6,4.6,1.6,4.6s-2.9,0.2-4.7-1.4c-1.7-1.7-1.6-4.6-1.6-4.6S35.1,20.4,36.8,22.1z"/>
	<path class="st1" d="M42.1,58.4c-4.6,1.5-9.3-1.7-9.3-1.7s2.8-5.5,7.4-7s9.3,1.7,9.3,1.7S46.7,56.9,42.1,58.4z"/>
	<path class="st0" d="M49,39.7c-3.7,1-7.3-1.5-7.3-1.5s2.3-4.3,5.9-5.3c3.7-1,7.3,1.5,7.3,1.5S52.7,38.6,49,39.7z"/>
	<path class="st1" d="M27,36.2c3.1,2.3,3.5,7,3.5,7s-4.6,0.9-7.7-1.4c-3.1-2.3-3.5-7-3.5-7S23.9,33.9,27,36.2z"/>
</g>
<g id="hair">
</g>
<g id="skin">
</g>
<g id="skin-shadow">
</g>
<g id="line">
	<path class="st2" d="M36.8,22.1c1.7,1.7,1.6,4.6,1.6,4.6s-2.9,0.2-4.7-1.4c-1.7-1.7-1.6-4.6-1.6-4.6S35.1,20.4,36.8,22.1z"/>
	<path class="st2" d="M27,36.2c3.1,2.3,3.5,7,3.5,7s-4.6,0.9-7.7-1.4c-3.1-2.3-3.5-7-3.5-7S23.9,33.9,27,36.2z"/>
	<path class="st2" d="M42.1,58.4c-4.6,1.5-9.3-1.7-9.3-1.7s2.8-5.5,7.4-7s9.3,1.7,9.3,1.7S46.7,56.9,42.1,58.4z"/>
	<path class="st2" d="M49,39.7c-3.7,1-7.3-1.5-7.3-1.5s2.3-4.3,5.9-5.3c3.7-1,7.3,1.5,7.3,1.5S52.7,38.6,49,39.7z"/>
	<path class="st2" d="M39.9,29.8c0,4.8-2.9,10.1-4.9,13.1c-0.8,1.3-1.7,2.4-2.7,3.6c-2.6,3.1-5.2,8.2-3.9,15.9"/>
</g>
</svg>
