<?xml version="1.0" encoding="utf-8"?>
<!-- Generator: Adobe Illustrator 25.4.1, SVG Export Plug-In . SVG Version: 6.00 Build 0)  -->
<svg version="1.1" id="emoji" xmlns="http://www.w3.org/2000/svg" xmlns:xlink="http://www.w3.org/1999/xlink" x="0px" y="0px"
	 viewBox="0 0 72 72" style="enable-background:new 0 0 72 72;" xml:space="preserve">
<style type="text/css">
	.st0{fill:#5C9E31;}
	.st1{fill:#B1CC33;}
	.st2{fill:none;stroke:#FFFFFF;stroke-width:2;stroke-linecap:round;stroke-linejoin:round;}
</style>
<g id="color">
	<path class="st0" d="M55.7,36.7c5.4,6.2,4.1,16.3,4.1,16.3s-9.9-0.2-15.4-6.5s-4.1-16.3-4.1-16.3S50.4,30.3,55.7,36.7z"/>
	<path class="st1" d="M19.8,22.4C26.2,17,36,18.5,36,18.5s-0.5,10.1-6.8,15.3S13,37.6,13,37.6S13.4,27.7,19.8,22.4z"/>
</g>
<g id="line">
	<path class="st2" d="M19.8,22.4C26.2,17,36,18.5,36,18.5s-0.5,10.1-6.8,15.3S13,37.6,13,37.6S13.4,27.7,19.8,22.4z"/>
	<path class="st2" d="M55.7,36.7c5.4,6.2,4.1,16.3,4.1,16.3s-9.9-0.2-15.4-6.5s-4.1-16.3-4.1-16.3S50.4,30.3,55.7,36.7z"/>
</g>
</svg>
