<?xml version="1.0" encoding="utf-8"?>
<!-- Generator: Adobe Illustrator 25.4.1, SVG Export Plug-In . SVG Version: 6.00 Build 0)  -->
<svg version="1.1" id="emoji" xmlns="http://www.w3.org/2000/svg" xmlns:xlink="http://www.w3.org/1999/xlink" x="0px" y="0px"
	 viewBox="0 0 72 72" style="enable-background:new 0 0 72 72;" xml:space="preserve">
<style type="text/css">
	.st0{fill:#B1CC33;}
	.st1{fill:#5C9E31;}
	.st2{fill:none;stroke:#FFFFFF;stroke-width:2;stroke-linecap:round;stroke-linejoin:round;stroke-miterlimit:10;}
	.st3{fill:none;stroke:#FFFFFF;stroke-width:2;stroke-linecap:round;stroke-linejoin:round;}
</style>
<g id="color">
	<path class="st0" d="M51.9,35.9c4.2,0.9,6.8,5.5,6.8,5.5s-4.2,3-8.4,2.1S43.5,38,43.5,38S47.7,34.9,51.9,35.9z"/>
	<path class="st1" d="M22.4,20c4.1,1.4,6.1,6.2,6.1,6.2s-4.6,2.5-8.6,1.1s-6.1-6.2-6.1-6.2S18.3,18.6,22.4,20z"/>
</g>
<g id="hair">
</g>
<g id="skin">
</g>
<g id="skin-shadow">
</g>
<g id="line">
	<path class="st2" d="M34.9,34"/>
	<polyline class="st3" points="36,63.2 36,51.2 31,29.2 	"/>
	<line class="st3" x1="36" y1="51.2" x2="41" y2="41.2"/>
	<path class="st3" d="M22.4,20c4.1,1.4,6.1,6.2,6.1,6.2s-4.6,2.5-8.6,1.1s-6.1-6.2-6.1-6.2S18.3,18.6,22.4,20z"/>
	<path class="st3" d="M51.9,35.9c4.2,0.9,6.8,5.5,6.8,5.5s-4.2,3-8.4,2.1S43.5,38,43.5,38S47.7,34.9,51.9,35.9z"/>
</g>
</svg>
